<svg id="Layer_1" data-name="Layer 1" xmlns="http://www.w3.org/2000/svg" viewBox="0 0 45.03 47.49"><defs><style>.cls-1{fill:none;stroke:#000;stroke-miterlimit:10;stroke-width:35px;}.cls-2{fill:#39b54a;}.cls-3{fill:#fff;}</style></defs><title>logo-white</title><path class="cls-1" d="M23.82,2.14" transform="translate(-1.97)"/><rect class="cls-2" x="24.88" width="20.15" height="4.16"/><rect class="cls-3" x="25.02" y="7.14" width="14.25" height="4.16"/><path class="cls-3" d="M31.07,14.83V44.28a46.9,46.9,0,0,1-4.16,3.21V14.83Z" transform="translate(-1.97)"/><path class="cls-2" d="M38.19,14.83V36.32a44.51,44.51,0,0,1-3.65,4.57l-.5.54V14.83Z" transform="translate(-1.97)"/><path class="cls-3" d="M23.76,42.4a40.15,40.15,0,0,1-7.42-6.31A39.89,39.89,0,0,1,6.52,16,37,37,0,0,1,6.29,7.1C8.83,6.44,11.42,5.87,14,5.4a51.61,51.61,0,0,1,9.75-1.18V.06A55.05,55.05,0,0,0,13.27,1.31c-3.18.57-6.35,1.29-9.43,2.14l-1.33.37L2.33,5.18a40.61,40.61,0,0,0,.08,11.39A43.33,43.33,0,0,0,13.28,38.89a43.86,43.86,0,0,0,9.54,7.84l.94.57Z" transform="translate(-1.97)"/></svg>